<svg xmlns="http://www.w3.org/2000/svg" width="56" height="35" viewBox="0 0 56 35"><defs><style>.a{fill:#f3f3f3;stroke:#e4e4e4;stroke-width:2px;}.b{fill:#979797;}.b,.c,.d{fill-rule:evenodd;}.c{fill:#f2f2f2;}.d{fill:#333;}</style></defs><g transform="translate(1 1)"><g transform="translate(-933 -107)"><g transform="translate(933 107)"><rect class="a" width="54" height="33" rx="4"/><g transform="translate(17 3)"><path class="b" d="M2,0H20V10c-.668.012-1.337,0-2.005.005v3H0V2H2V0ZM3,1c0,.332,0,.664,0,1H14.088Q16.04,2,17.993,2q0,3.5,0,7h1q0-4,0-8C17.942,1,16.89,1,15.839,1ZM1,3q0,.914,0,1.829A3.042,3.042,0,0,0,2.829,3ZM3.871,3a4,4,0,0,1-.947,1.726A4.011,4.011,0,0,1,1,5.874Q1,7.5,1,9.126a4.011,4.011,0,0,1,1.71.933A4.015,4.015,0,0,1,3.873,12H14.121a4.011,4.011,0,0,1,2.872-2.873q0-1.626,0-3.252A4.009,4.009,0,0,1,14.122,3Q9,3,3.871,3ZM15.165,3a3.023,3.023,0,0,0,1.828,1.827q0-.913,0-1.827ZM1,12c.61,0,1.219,0,1.829,0A3.049,3.049,0,0,0,1,10.17Q1,11.085,1,12Zm14.164,0h1.829q0-.913,0-1.826A3.026,3.026,0,0,0,15.164,12Z"/><path class="b" d="M8.684,4.02a2.644,2.644,0,0,1,1.728.394,3.366,3.366,0,0,1,1.277,1.543,4.036,4.036,0,0,1,0,3.093,3.632,3.632,0,0,1-.716,1.085,2.856,2.856,0,0,1-1.325.783A2.61,2.61,0,0,1,7.989,10.8a3.054,3.054,0,0,1-1.35-1.139,3.96,3.96,0,0,1-.081-4.189,3.1,3.1,0,0,1,1.395-1.25,2.635,2.635,0,0,1,.732-.2Zm.085,1a1.819,1.819,0,0,0-.949.47,2.563,2.563,0,0,0-.73,1.269A3.053,3.053,0,0,0,7.245,8.7a2.328,2.328,0,0,0,.836,1.018A1.666,1.666,0,0,0,9.089,10a1.8,1.8,0,0,0,1.136-.532,2.646,2.646,0,0,0,.733-1.488,3.007,3.007,0,0,0-.289-1.84,2.225,2.225,0,0,0-.88-.927A1.621,1.621,0,0,0,8.769,5.017Z"/><g transform="translate(0.99 0.99)"><path class="c" d="M2.009.01h12.84c1.052,0,2.1,0,3.155,0q0,4,0,8h-1q0-3.5,0-7Q15.05,1.011,13.1,1H2.009C2.009.674,2.009.342,2.009.01Z"/><path class="c" d="M.01,2.01H1.839A3.042,3.042,0,0,1,.01,3.839Q.009,2.924.01,2.01Z"/><path class="c" d="M2.881,2.011q5.126,0,10.251,0a4,4,0,0,0,1.327,2.083A4.015,4.015,0,0,0,16,4.884q0,1.626,0,3.252a4.011,4.011,0,0,0-2.872,2.873H2.883A4.015,4.015,0,0,0,1.72,9.069,4.011,4.011,0,0,0,.01,8.136q0-1.626,0-3.252A4.011,4.011,0,0,0,1.934,3.737a4,4,0,0,0,.947-1.726ZM7.694,3.029a2.635,2.635,0,0,0-.732.2,3.1,3.1,0,0,0-1.395,1.25,3.96,3.96,0,0,0,.081,4.189A3.054,3.054,0,0,0,7,9.806a2.61,2.61,0,0,0,1.656.121A2.856,2.856,0,0,0,9.98,9.144,3.632,3.632,0,0,0,10.7,8.059a4.036,4.036,0,0,0,0-3.093A3.366,3.366,0,0,0,9.422,3.424,2.644,2.644,0,0,0,7.694,3.029Z"/><path class="c" d="M14.175,2.01H16q0,.913,0,1.827A3.023,3.023,0,0,1,14.175,2.01Z"/><path class="c" d="M7.779,4.027A1.621,1.621,0,0,1,8.8,4.22a2.225,2.225,0,0,1,.88.927,3.007,3.007,0,0,1,.289,1.84,2.646,2.646,0,0,1-.733,1.488A1.8,1.8,0,0,1,8.1,9.007a1.666,1.666,0,0,1-1.008-.281,2.328,2.328,0,0,1-.836-1.018A3.053,3.053,0,0,1,6.1,5.766,2.563,2.563,0,0,1,6.83,4.5,1.819,1.819,0,0,1,7.779,4.027Z"/><path class="c" d="M.01,11.01q0-.915,0-1.83a3.049,3.049,0,0,1,1.829,1.829C1.229,11.011.62,11.009.01,11.01Z"/><path class="c" d="M14.174,11.01A3.026,3.026,0,0,1,16,9.183q0,.913,0,1.826Z"/></g></g><path class="d" d="M9.243,28V22.371h2.043v-.712H6.409v.712H8.452V28ZM13.3,28V21.659h-.791V28Zm5.546-.712H15.708v-2.18h2.975v-.7H15.708V22.371h3.138v-.712H14.917V28h3.929Zm-2.391-7.233-1.292,1.024h.976l.712-.593h.07l.712.593h.976l-1.292-1.024Zm2.338-.2-.967-1.063h-.949l1.081,1.063ZM21.06,28V23.083h.07L24.571,28h.769V21.659h-.782v4.935h-.07l-3.441-4.935h-.769V28Zm14.687,0V21.659h-.918l-2.171,5.247h-.07l-2.171-5.247H29.5V28h.738V23.157h.053l2,4.8h.668l2-4.8h.053V28Zm5.739,0h.831l-2.338-6.341H39.2L36.858,28h.831l.637-1.815h2.522l.1.275.222.633.222.633Zm-1.934-5.317h.07l.993,2.83H38.559l.1-.286q.1-.286.248-.708l.294-.844q.147-.422.248-.708Zm-1.564-2.914a1.18,1.18,0,0,0,.428.949,2.087,2.087,0,0,0,2.344,0,1.182,1.182,0,0,0,.426-.949H40.51a.686.686,0,0,1-.246.554,1.208,1.208,0,0,1-1.351,0,.683.683,0,0,1-.248-.554Zm1.6,10a.533.533,0,1,0-.376-.156A.512.512,0,0,0,39.587,29.767ZM45.867,28V22.371h2.043v-.712H43.033v.712h2.043V28Z"/></g></g></g></svg>