<svg xmlns="http://www.w3.org/2000/svg" viewBox="0 0 84.08 83.77"><defs><style>.cls-1{fill:#fff;}.cls-2{fill:#af2070;}</style></defs><title>Asset 20</title><g id="Layer_2" data-name="Layer 2"><g id="Layer_1-2" data-name="Layer 1"><rect class="cls-1" width="84.08" height="83.77" rx="8.08" ry="8.08"/><path class="cls-1" d="M20.18,7.74h1.21C21,7.72,20.62,7.72,20.18,7.74Z"/><path class="cls-1" d="M20.18,39.88h1.21C21,39.87,20.62,39.87,20.18,39.88Z"/><path class="cls-2" d="M15.3,71.7a1.26,1.26,0,0,1,.5.39,1.24,1.24,0,0,1,.25.56,3.85,3.85,0,0,1,0,.64V76H14.92V73.26a.91.91,0,0,0-.08-.41.56.56,0,0,0-.56-.3.65.65,0,0,0-.65.39,1.22,1.22,0,0,0-.09.5V76H12.41V73.44a1.45,1.45,0,0,0-.08-.56.55.55,0,0,0-.56-.31.67.67,0,0,0-.65.31,1.21,1.21,0,0,0-.09.53V76H9.88V71.69H11v.63a1.82,1.82,0,0,1,.4-.48,1.36,1.36,0,0,1,.85-.25,1.35,1.35,0,0,1,.8.22,1.27,1.27,0,0,1,.37.52,1.44,1.44,0,0,1,.55-.56,1.68,1.68,0,0,1,.78-.18A1.51,1.51,0,0,1,15.3,71.7Z"/><path class="cls-2" d="M21.59,75.48a2,2,0,0,1-1.66.68,2,2,0,0,1-1.66-.68,2.69,2.69,0,0,1,0-3.25,2,2,0,0,1,1.66-.69,2,2,0,0,1,1.66.69,2.69,2.69,0,0,1,0,3.25Zm-.91-.63a2,2,0,0,0,0-2,1,1,0,0,0-1.53,0,2,2,0,0,0,0,2,1,1,0,0,0,1.53,0Z"/><path class="cls-2" d="M27.49,72.21A2.49,2.49,0,0,1,28,73.79a2.78,2.78,0,0,1-.48,1.67,1.74,1.74,0,0,1-2.2.45,1.72,1.72,0,0,1-.42-.44V76H23.75V70.17h1.13v2.08a1.66,1.66,0,0,1,.48-.46,1.42,1.42,0,0,1,.78-.2A1.62,1.62,0,0,1,27.49,72.21Zm-.95,2.64a1.6,1.6,0,0,0,.24-.93,2.08,2.08,0,0,0-.12-.76.84.84,0,0,0-.84-.57.85.85,0,0,0-.85.56,2.09,2.09,0,0,0-.12.77,1.6,1.6,0,0,0,.25.92.85.85,0,0,0,.76.37A.78.78,0,0,0,26.54,74.84Z"/><path class="cls-2" d="M30.77,71.17H29.62v-1h1.15Zm-1.15.52h1.15V76H29.62Z"/><path class="cls-2" d="M33.87,76H32.73V70.16h1.13Z"/><path class="cls-2" d="M38.64,71.77a1.76,1.76,0,0,1,.75.64,2.13,2.13,0,0,1,.34.89,5.53,5.53,0,0,1,0,.86H36.61a1,1,0,0,0,.45.91,1.15,1.15,0,0,0,.62.16.88.88,0,0,0,.86-.5h1.16a1.41,1.41,0,0,1-.42.78,2.1,2.1,0,0,1-1.63.63,2.36,2.36,0,0,1-1.52-.53,2.1,2.1,0,0,1-.66-1.73,2.34,2.34,0,0,1,.6-1.73,2.09,2.09,0,0,1,1.55-.6A2.47,2.47,0,0,1,38.64,71.77Zm-1.69,1a1.18,1.18,0,0,0-.3.67h1.95a.94.94,0,0,0-.3-.68,1,1,0,0,0-.67-.23A.9.9,0,0,0,36.94,72.75Z"/><path class="cls-2" d="M50.36,71.7a1.26,1.26,0,0,1,.5.39,1.24,1.24,0,0,1,.25.56,3.85,3.85,0,0,1,0,.64V76H50V73.26a.91.91,0,0,0-.08-.41.56.56,0,0,0-.56-.3.65.65,0,0,0-.65.39,1.22,1.22,0,0,0-.09.5V76H47.47V73.44a1.45,1.45,0,0,0-.08-.56.55.55,0,0,0-.56-.31.67.67,0,0,0-.65.31,1.21,1.21,0,0,0-.09.53V76H44.94V71.69H46v.63a1.82,1.82,0,0,1,.4-.48,1.57,1.57,0,0,1,1.66,0,1.27,1.27,0,0,1,.37.52,1.44,1.44,0,0,1,.55-.56,1.68,1.68,0,0,1,.78-.18A1.51,1.51,0,0,1,50.36,71.7Z"/><path class="cls-2" d="M56.65,75.48a2.38,2.38,0,0,1-3.33,0,2.69,2.69,0,0,1,0-3.25,2.36,2.36,0,0,1,3.33,0,2.69,2.69,0,0,1,0,3.25Zm-.91-.63a2,2,0,0,0,0-2,1,1,0,0,0-1.53,0,2,2,0,0,0,0,2,1,1,0,0,0,1.53,0Z"/><path class="cls-2" d="M62.34,71.93a1.43,1.43,0,0,1,.43,1.17V76H61.61V73.38a1.21,1.21,0,0,0-.09-.52.64.64,0,0,0-.63-.33.78.78,0,0,0-.78.49,1.69,1.69,0,0,0-.11.66V76H58.86V71.69H60v.63a1.92,1.92,0,0,1,.41-.48,1.42,1.42,0,0,1,.88-.26A1.66,1.66,0,0,1,62.34,71.93Z"/><path class="cls-2" d="M67.49,71.77a1.76,1.76,0,0,1,.75.64,2.13,2.13,0,0,1,.34.89,5.53,5.53,0,0,1,0,.86H65.46a1,1,0,0,0,.45.91,1.15,1.15,0,0,0,.62.16.88.88,0,0,0,.86-.5h1.16a1.41,1.41,0,0,1-.42.78,2.1,2.1,0,0,1-1.63.63A2.36,2.36,0,0,1,65,75.63a2.1,2.1,0,0,1-.66-1.73,2.34,2.34,0,0,1,.6-1.73,2.09,2.09,0,0,1,1.55-.6A2.47,2.47,0,0,1,67.49,71.77Zm-1.69,1a1.18,1.18,0,0,0-.3.67h1.95a.94.94,0,0,0-.3-.68,1,1,0,0,0-.67-.23A.9.9,0,0,0,65.79,72.75Z"/><path class="cls-2" d="M70.21,76.84h.46a.57.57,0,0,0,.25-.09.61.61,0,0,0,.18-.28.68.68,0,0,0,.07-.26l-1.59-4.52h1.26l.95,3.19.89-3.19h1.2L72.4,75.94a6,6,0,0,1-.68,1.53,1.29,1.29,0,0,1-1,.3h-.52Z"/><path class="cls-2" d="M33.74,7.74H32c-2.53.11-3.57,1-5.32,2-1.75-1-2.79-1.85-5.32-2h-1.7A9.69,9.69,0,0,0,10,17.42V35.48h8.36V17.71a2.09,2.09,0,0,1,4.18,0V35.48h8.35V17.71a2.09,2.09,0,0,1,4.18,0V35.48h8.36V17.42A9.69,9.69,0,0,0,33.74,7.74Z"/><path class="cls-2" d="M60.14,7.74A13.87,13.87,0,1,0,74,21.61,13.87,13.87,0,0,0,60.14,7.74Zm0,19.88a6,6,0,1,1,6-6A6,6,0,0,1,60.14,27.62Z"/><path class="cls-2" d="M33.74,39.88H32c-2.53.11-3.57,1-5.32,2-1.75-1-2.79-1.85-5.32-2h-1.7A9.69,9.69,0,0,0,10,49.57V67.62h8.36V49.85a2.09,2.09,0,0,1,4.18,0V67.62h8.35V49.85a2.09,2.09,0,0,1,4.18,0V67.62h8.36V49.57A9.69,9.69,0,0,0,33.74,39.88Z"/><path class="cls-2" d="M60.14,39.88A13.87,13.87,0,1,0,74,53.75,13.87,13.87,0,0,0,60.14,39.88Zm0,19.88a6,6,0,1,1,6-6A6,6,0,0,1,60.14,59.77Z"/></g></g></svg>