<svg xmlns="http://www.w3.org/2000/svg" width="56" height="35" viewBox="0 0 56 35"><defs><style>.a{fill:#f2f2f2;stroke:#e4e4e4;stroke-width:2px;}.b{fill:#f79f1a;}.b,.c,.d{fill-rule:evenodd;}.c{fill:#ea001b;}.d{fill:#ff5f01;}</style></defs><g transform="translate(1 1)"><g transform="translate(-997 -64)"><g transform="translate(997 64)"><rect class="a" width="54" height="33" rx="4"/><g transform="translate(10 6)"><path class="b" d="M33.067,10.244A10.223,10.223,0,1,1,22.845,0,10.232,10.232,0,0,1,33.067,10.244Z"/><path class="c" d="M20.456,10.244A10.223,10.223,0,1,1,10.233,0,10.232,10.232,0,0,1,20.456,10.244Z"/><path class="d" d="M16.539,2.182a10.258,10.258,0,0,0,0,16.125,10.258,10.258,0,0,0,0-16.125Z"/><g transform="translate(32.204 15.285)"><path class="b" d="M.844.531v-.5h-.1L.639.375.529.031h-.1v.5H.5V.154L.6.479h.07l.1-.326V.531Zm-.6,0V.116H.362V.032H.051V.116H.173V.531Z"/></g></g></g></g></g></svg>