<svg xmlns="http://www.w3.org/2000/svg" width="56" height="35" viewBox="0 0 56 35"><defs><style>.a{fill:#f3f3f3;stroke:#e4e4e4;stroke-width:2px;}.b{fill:#243881;}.b,.c,.d,.e{fill-rule:evenodd;}.c{fill:#192164;}.d{fill:#28327b;}.e{fill:#344490;}</style></defs><g transform="translate(1 1)"><g transform="translate(-933 -64)"><g transform="translate(933 64)"><rect class="a" width="54" height="33" rx="4"/><g transform="translate(7 10)"><path class="b" d="M24.223.209a8.876,8.876,0,0,1,3.031-.14,9.574,9.574,0,0,1,1.9.446q-.284,1.229-.568,2.458a6.83,6.83,0,0,0-2.478-.547,3.662,3.662,0,0,0-1.275.156A1.388,1.388,0,0,0,24.2,3a.677.677,0,0,0-.149.582.916.916,0,0,0,.322.459,4.708,4.708,0,0,0,.872.53,13.652,13.652,0,0,1,2,1.1,3.086,3.086,0,0,1,1.17,1.464,3.006,3.006,0,0,1,.095,1.457,3.334,3.334,0,0,1-.72,1.6,4.414,4.414,0,0,1-1.749,1.244,7.726,7.726,0,0,1-2.486.533,11.7,11.7,0,0,1-2.867-.209,7.148,7.148,0,0,1-1.349-.389q.293-1.269.584-2.538a10.065,10.065,0,0,0,1.212.462,6.67,6.67,0,0,0,1.477.255,4.939,4.939,0,0,0,1.374-.071A1.854,1.854,0,0,0,24.947,9a.824.824,0,0,0,.153-.923,1.573,1.573,0,0,0-.568-.553,8.783,8.783,0,0,0-1.082-.56,6.526,6.526,0,0,1-2-1.307,2.6,2.6,0,0,1-.754-1.519,3.151,3.151,0,0,1,.347-1.764,3.565,3.565,0,0,1,.888-1.08A5.537,5.537,0,0,1,24.223.209Z"/><path class="c" d="M.077.213q2.721,0,5.442,0a1.77,1.77,0,0,1,.464.052,1.467,1.467,0,0,1,.8.519,1.507,1.507,0,0,1,.284.629L7.956,5.8c.157.767.308,1.535.469,2.3q1.683-3.942,3.36-7.886,1.7,0,3.393,0-2.618,5.8-5.235,11.594c-1.137,0-2.273,0-3.41,0Q5.257,7.247,3.992,2.684a2.39,2.39,0,0,0-.3-.764,1.745,1.745,0,0,0-.719-.489A13.045,13.045,0,0,0,.929.759Q.468.644,0,.548C.025.436.053.325.077.213Z"/><path class="d" d="M16.4.912c.055-.234.106-.469.164-.7,1.076,0,2.152,0,3.227,0q-1.336,5.8-2.672,11.594h-3.23Q15.15,6.359,16.4.912Z"/><path class="e" d="M33.244,1.051A1.48,1.48,0,0,1,34.562.213c.937,0,1.874,0,2.81,0q1.305,5.8,2.608,11.6H36.992c-.132-.577-.261-1.154-.392-1.731H32.459q-.338.865-.674,1.73-1.7,0-3.392,0,2.425-5.377,4.851-10.754ZM33.388,7.7h2.678q-.489-2.174-.977-4.347Q34.234,5.521,33.388,7.7Z"/></g></g></g></g></svg>